<?xml version="1.0" encoding="UTF-8"?>
<!-- Generated by Pixelmator Pro 3.7 -->
<svg width="1024" height="1024" viewBox="0 0 1024 1024" xmlns="http://www.w3.org/2000/svg">
    <g id="Layer">
        <g id="Group">
            <g id="g1">
                <g id="g2">
                    <path id="Path" fill="#282e5b" stroke="none" d="M 899.798279 1024 L 124.201782 1024 C 55.71656 1024 0 974.752136 0 914.21814 L 0 109.781921 C 0 49.247925 55.71656 6.1e-05 124.201782 6.1e-05 L 899.798279 6.1e-05 C 968.283447 6.1e-05 1023.999939 49.247925 1023.999939 109.781921 L 1023.999939 914.21814 C 1023.999939 974.752136 968.283447 1024 899.798279 1024 Z M 124.201782 44.15918 C 83.264313 44.15918 49.959583 73.597351 49.959583 109.781921 L 49.959583 914.21814 C 49.959583 950.402649 83.264313 979.84082 124.201782 979.84082 L 899.798279 979.84082 C 940.735718 979.84082 974.040466 950.402649 974.040466 914.21814 L 974.040466 109.781921 C 974.040466 73.597351 940.735718 44.15918 899.798279 44.15918 L 124.201782 44.15918 Z"/>
                </g>
            </g>
            <path id="path1" fill="#282e5b" stroke="none" d="M 706.475769 721.054199 L 763.72229 712.878174 L 763.72229 629.535767 L 706.475769 621.359863 C 702.113647 602.494202 694.558899 584.8797 684.793152 568.84137 L 719.374817 522.927368 L 660.589722 463.798828 L 614.338074 498.394104 C 598.306641 488.644714 580.677673 481.0979 561.821594 476.696899 L 553.649658 419.77179 L 470.298218 419.77179 L 462.128143 476.696899 C 443.271332 481.0979 425.643127 488.644714 409.609833 498.394104 L 363.727722 463.798828 L 304.574066 522.927368 L 339.156677 568.84137 C 329.083099 584.8797 321.896271 602.494202 317.472137 621.359863 L 260.533325 629.535767 L 260.533325 712.878174 L 317.472137 721.054199 C 321.896271 739.922791 329.083099 757.537292 339.156677 773.891968 L 304.574066 819.804993 L 363.727722 878.615173 L 409.609833 844.02301 C 425.643127 854.088745 443.271332 861.63739 462.128143 866.036499 L 470.298218 922.960571 L 553.649658 922.960571 L 561.821594 866.036499 C 580.677673 861.63739 598.306641 854.088745 614.338074 844.02301 L 660.589722 878.615173 L 719.374817 819.804993 L 684.793152 773.576477 C 694.558899 757.221863 702.113647 739.608337 706.475769 721.054199 Z M 512.127869 735.187927 C 476.682983 735.187927 448.228638 706.592285 448.228638 671.287842 C 448.228638 635.985229 476.682983 607.229858 512.127869 607.229858 C 547.446777 607.229858 576.026917 635.985229 576.026917 671.287842 C 576.026917 706.592285 547.446777 735.187927 512.127869 735.187927 Z"/>
            <g id="g3">
                <g id="g4">
                    <path id="path2" fill="#282e5b" stroke="none" d="M 842.903442 229.092163 L 842.903442 22.079712 L 181.352173 22.079712 L 181.352173 229.092163 C 181.352173 266.199585 211.433441 296.281006 248.540924 296.281006 L 775.714722 296.281006 C 812.822021 296.281006 842.903442 266.199585 842.903442 229.092163 Z"/>
                </g>
                <g id="g5">
                    <path id="path3" fill="#ffffff" stroke="none" d="M 294.188477 77.875244 L 409.500336 77.875244 L 409.500336 111.043884 L 333.583954 111.043884 L 333.583954 141.218933 L 400.040802 141.218933 L 400.040802 174.268005 L 333.583954 174.268005 L 333.583954 207.436646 L 410.697449 207.436646 L 410.697449 240.485413 L 294.188477 240.485413 L 294.188477 77.875244 Z"/>
                    <path id="path4" fill="#ffffff" stroke="none" d="M 485.214233 157.264465 L 426.660004 77.875244 L 472.760895 77.875244 L 508.444092 128.526489 L 544.127502 77.875244 L 590.227478 77.875244 L 531.673828 157.264465 L 593.340759 240.485413 L 547.24054 240.485413 L 508.444092 184.925049 L 469.647644 240.485413 L 423.546661 240.485413 L 485.214233 157.264465 Z"/>
                    <path id="path5" fill="#ffffff" stroke="none" d="M 611.91394 77.875244 L 727.225525 77.875244 L 727.225525 111.043884 L 651.308777 111.043884 L 651.308777 141.218933 L 717.765991 141.218933 L 717.765991 174.268005 L 651.308777 174.268005 L 651.308777 207.436646 L 728.422729 207.436646 L 728.422729 240.485413 L 611.91394 240.485413 L 611.91394 77.875244 Z"/>
                </g>
            </g>
        </g>
    </g>
</svg>
